<svg width="196" height="24" viewBox="0 0 196 24" fill="none" xmlns="http://www.w3.org/2000/svg">
<path d="M7.75439 23.4399V4.40869H0.95752V0.533691H19.1606V4.40869H12.3794V23.4399H7.75439ZM20.6294 12.1274C20.6294 9.79411 20.9784 7.83577 21.6763 6.25244C22.1971 5.08577 22.9054 4.0389 23.8013 3.11182C24.7075 2.18473 25.6971 1.49723 26.77 1.04932C28.1971 0.44515 29.8429 0.143066 31.7075 0.143066C35.0825 0.143066 37.7804 1.18994 39.8013 3.28369C41.8325 5.37744 42.8481 8.2889 42.8481 12.0181C42.8481 15.716 41.8429 18.6118 39.8325 20.7056C37.8221 22.7889 35.1346 23.8306 31.77 23.8306C28.3638 23.8306 25.6554 22.7941 23.645 20.7212C21.6346 18.6379 20.6294 15.7733 20.6294 12.1274ZM25.395 11.9712C25.395 14.5649 25.994 16.5337 27.1919 17.8774C28.3898 19.2108 29.9106 19.8774 31.7544 19.8774C33.5981 19.8774 35.1086 19.216 36.2856 17.8931C37.4731 16.5597 38.0669 14.5649 38.0669 11.9087C38.0669 9.28369 37.4888 7.32536 36.3325 6.03369C35.1867 4.74202 33.6606 4.09619 31.7544 4.09619C29.8481 4.09619 28.3117 4.75244 27.145 6.06494C25.9784 7.36702 25.395 9.33577 25.395 11.9712ZM46.4731 23.4399V0.533691H53.895C56.7075 0.533691 58.5409 0.648275 59.395 0.877441C60.7075 1.22119 61.8065 1.97119 62.6919 3.12744C63.5773 4.27327 64.02 5.75765 64.02 7.58057C64.02 8.98682 63.7648 10.1691 63.2544 11.1274C62.744 12.0858 62.0929 12.841 61.3013 13.3931C60.52 13.9347 59.7231 14.2941 58.9106 14.4712C57.8065 14.6899 56.2075 14.7993 54.1138 14.7993H51.0981V23.4399H46.4731ZM51.0981 4.40869V10.9087H53.6294C55.4523 10.9087 56.6711 10.7889 57.2856 10.5493C57.9002 10.3097 58.3794 9.93473 58.7231 9.42432C59.0773 8.9139 59.2544 8.32015 59.2544 7.64307C59.2544 6.80973 59.0096 6.12223 58.52 5.58057C58.0304 5.0389 57.4106 4.70036 56.6606 4.56494C56.1086 4.46077 54.9992 4.40869 53.3325 4.40869H51.0981ZM66.645 15.9868L71.145 15.5493C71.4159 17.0597 71.9627 18.1691 72.7856 18.8774C73.619 19.5858 74.7388 19.9399 76.145 19.9399C77.6346 19.9399 78.7544 19.6274 79.5044 19.0024C80.2648 18.367 80.645 17.6274 80.645 16.7837C80.645 16.242 80.4836 15.7837 80.1606 15.4087C79.8481 15.0233 79.2961 14.6899 78.5044 14.4087C77.9627 14.2212 76.7284 13.8879 74.8013 13.4087C72.3221 12.7941 70.5825 12.0389 69.5825 11.1431C68.1763 9.88265 67.4731 8.34619 67.4731 6.53369C67.4731 5.36702 67.8013 4.27848 68.4575 3.26807C69.1242 2.24723 70.0773 1.47119 71.3169 0.939941C72.5669 0.408691 74.0721 0.143066 75.8325 0.143066C78.7075 0.143066 80.869 0.773275 82.3169 2.03369C83.7752 3.29411 84.5409 4.9764 84.6138 7.08057L79.9888 7.28369C79.7909 6.10661 79.3638 5.26286 78.7075 4.75244C78.0617 4.23161 77.0877 3.97119 75.7856 3.97119C74.4419 3.97119 73.3898 4.24723 72.6294 4.79932C72.1398 5.15348 71.895 5.62744 71.895 6.22119C71.895 6.76286 72.1242 7.2264 72.5825 7.61182C73.1659 8.1014 74.5825 8.61182 76.8325 9.14307C79.0825 9.67432 80.744 10.2264 81.8169 10.7993C82.9002 11.3618 83.744 12.1379 84.3481 13.1274C84.9627 14.1066 85.27 15.3201 85.27 16.7681C85.27 18.0806 84.9054 19.3097 84.1763 20.4556C83.4471 21.6014 82.4159 22.4556 81.0825 23.0181C79.7492 23.5701 78.0877 23.8462 76.0981 23.8462C73.2023 23.8462 70.9784 23.1795 69.4263 21.8462C67.8742 20.5024 66.9471 18.5493 66.645 15.9868ZM89.2231 23.4399V0.533691H93.8481V10.7056L103.192 0.533691H109.411L100.786 9.45557L109.879 23.4399H103.895L97.5981 12.6899L93.8481 16.5181V23.4399H89.2231ZM112.411 23.4399V0.721191H117.036V19.5806H128.536V23.4399H112.411ZM131.848 23.4399V0.533691H148.833V4.40869H136.473V9.48682H147.973V13.3462H136.473V19.5806H149.27V23.4399H131.848ZM153.192 23.4399V0.533691H160.614C163.426 0.533691 165.26 0.648275 166.114 0.877441C167.426 1.22119 168.525 1.97119 169.411 3.12744C170.296 4.27327 170.739 5.75765 170.739 7.58057C170.739 8.98682 170.484 10.1691 169.973 11.1274C169.463 12.0858 168.812 12.841 168.02 13.3931C167.239 13.9347 166.442 14.2941 165.629 14.4712C164.525 14.6899 162.926 14.7993 160.833 14.7993H157.817V23.4399H153.192ZM157.817 4.40869V10.9087H160.348C162.171 10.9087 163.39 10.7889 164.004 10.5493C164.619 10.3097 165.098 9.93473 165.442 9.42432C165.796 8.9139 165.973 8.32015 165.973 7.64307C165.973 6.80973 165.728 6.12223 165.239 5.58057C164.749 5.0389 164.129 4.70036 163.379 4.56494C162.827 4.46077 161.718 4.40869 160.051 4.40869H157.817ZM184.036 0.0649414C186.088 0.0649414 188.056 0.580566 189.942 1.61182C191.827 2.63265 193.306 4.1014 194.379 6.01807C195.463 7.93473 196.004 9.93994 196.004 12.0337C196.004 14.117 195.473 16.1066 194.411 18.0024C193.359 19.8879 191.885 21.3618 189.989 22.4243C188.103 23.4764 186.119 24.0024 184.036 24.0024C181.952 24.0024 179.963 23.4764 178.067 22.4243C176.181 21.3618 174.708 19.8879 173.645 18.0024C172.593 16.1066 172.067 14.117 172.067 12.0337C172.067 9.93994 172.603 7.93473 173.676 6.01807C174.76 4.1014 176.244 2.63265 178.129 1.61182C180.015 0.580566 181.984 0.0649414 184.036 0.0649414ZM184.051 2.40869C182.405 2.40869 180.827 2.82015 179.317 3.64307C177.806 4.46598 176.614 5.64827 175.739 7.18994C174.874 8.73161 174.442 10.3462 174.442 12.0337C174.442 13.7108 174.864 15.3097 175.708 16.8306C176.562 18.3514 177.749 19.5389 179.27 20.3931C180.791 21.2472 182.385 21.6743 184.051 21.6743C185.728 21.6743 187.322 21.2472 188.833 20.3931C190.353 19.5389 191.541 18.3514 192.395 16.8306C193.249 15.3097 193.676 13.7108 193.676 12.0337C193.676 10.3462 193.239 8.73161 192.364 7.18994C191.499 5.64827 190.306 4.46598 188.786 3.64307C187.275 2.82015 185.697 2.40869 184.051 2.40869ZM178.629 18.4399V5.73682H181.208C183.624 5.73682 184.978 5.74723 185.27 5.76807C186.124 5.84098 186.786 6.01286 187.254 6.28369C187.734 6.54411 188.129 6.95036 188.442 7.50244C188.765 8.04411 188.926 8.64827 188.926 9.31494C188.926 10.2316 188.624 11.0181 188.02 11.6743C187.426 12.3201 186.588 12.7212 185.504 12.8774C185.89 13.0233 186.187 13.1847 186.395 13.3618C186.603 13.5285 186.89 13.8514 187.254 14.3306C187.348 14.4556 187.661 14.9712 188.192 15.8774L189.692 18.4399H186.504L185.442 16.3774C184.723 14.992 184.129 14.1222 183.661 13.7681C183.192 13.4035 182.598 13.2212 181.879 13.2212H181.208V18.4399H178.629ZM181.208 11.2212H182.254C183.744 11.2212 184.666 11.1639 185.02 11.0493C185.385 10.9347 185.671 10.7368 185.879 10.4556C186.088 10.1639 186.192 9.83577 186.192 9.47119C186.192 9.11702 186.088 8.80452 185.879 8.53369C185.681 8.25244 185.395 8.05452 185.02 7.93994C184.645 7.81494 183.723 7.75244 182.254 7.75244H181.208V11.2212Z" fill="#222020"/>
</svg>
